<svg width="74" height="74" viewBox="0 0 74 74" fill="none" xmlns="http://www.w3.org/2000/svg">
<path d="M36.1511 7.39794C36.689 7.14581 37.311 7.14581 37.8489 7.39794L40.145 8.47428C40.5191 8.64966 40.9384 8.70486 41.3452 8.63228L43.8416 8.18689C44.4264 8.08256 45.0273 8.24357 45.4816 8.62631L47.4208 10.2603C47.7368 10.5265 48.1275 10.6883 48.5392 10.7235L51.0659 10.9394C51.6577 10.99 52.1965 11.301 52.5362 11.7883L53.9865 13.8685C54.2228 14.2074 54.5583 14.4649 54.9469 14.6054L57.3316 15.4679C57.8902 15.67 58.33 16.1098 58.5321 16.6684L59.3946 19.0531C59.5351 19.4417 59.7925 19.7772 60.1315 20.0135L62.2117 21.4638C62.699 21.8035 63.01 22.3423 63.0606 22.9341L63.2765 25.4608C63.3117 25.8725 63.4735 26.2632 63.7397 26.5792L65.3737 28.5184C65.7564 28.9727 65.9174 29.5736 65.8131 30.1584L65.3677 32.6548C65.2951 33.0616 65.3503 33.4809 65.5257 33.855L66.6021 36.1511C66.8542 36.689 66.8542 37.311 66.6021 37.8489L65.5257 40.145C65.3503 40.5191 65.2951 40.9384 65.3677 41.3452L65.8131 43.8416C65.9174 44.4264 65.7564 45.0273 65.3737 45.4815L63.7397 47.4208C63.4735 47.7368 63.3117 48.1275 63.2765 48.5392L63.0606 51.0659C63.01 51.6577 62.699 52.1965 62.2117 52.5362L60.1315 53.9865C59.7925 54.2228 59.5351 54.5583 59.3946 54.9469L58.5321 57.3316C58.33 57.8902 57.8902 58.33 57.3316 58.5321L54.9469 59.3946C54.5583 59.5351 54.2228 59.7925 53.9865 60.1315L52.5362 62.2117C52.1965 62.699 51.6577 63.01 51.0659 63.0606L48.5392 63.2765C48.1275 63.3117 47.7368 63.4735 47.4208 63.7397L45.4815 65.3737C45.0273 65.7564 44.4264 65.9174 43.8416 65.8131L41.3452 65.3677C40.9384 65.2951 40.5191 65.3503 40.145 65.5257L37.8489 66.6021C37.311 66.8542 36.689 66.8542 36.1511 66.6021L33.855 65.5257C33.4809 65.3503 33.0616 65.2951 32.6548 65.3677L30.1584 65.8131C29.5736 65.9174 28.9727 65.7564 28.5184 65.3737L26.5792 63.7397C26.2632 63.4735 25.8725 63.3117 25.4608 63.2765L22.9341 63.0606C22.3423 63.01 21.8035 62.699 21.4638 62.2117L20.0135 60.1315C19.7772 59.7925 19.4417 59.5351 19.0531 59.3946L16.6684 58.5321C16.1098 58.33 15.67 57.8902 15.4679 57.3316L14.6054 54.9469C14.4649 54.5583 14.2074 54.2228 13.8685 53.9865L11.7883 52.5362C11.301 52.1965 10.99 51.6577 10.9394 51.0659L10.7235 48.5392C10.6883 48.1275 10.5265 47.7368 10.2603 47.4208L8.62631 45.4815C8.24357 45.0273 8.08256 44.4264 8.18689 43.8416L8.63228 41.3452C8.70486 40.9384 8.64966 40.5191 8.47428 40.145L7.39794 37.8489C7.14581 37.311 7.14581 36.689 7.39794 36.1511L8.47428 33.855C8.64966 33.4809 8.70486 33.0616 8.63228 32.6548L8.18689 30.1584C8.08256 29.5736 8.24357 28.9727 8.62631 28.5184L10.2603 26.5792C10.5265 26.2632 10.6883 25.8725 10.7235 25.4608L10.9394 22.9341C10.99 22.3423 11.301 21.8035 11.7883 21.4638L13.8685 20.0135C14.2074 19.7772 14.4649 19.4417 14.6054 19.0531L15.4679 16.6684C15.67 16.1098 16.1098 15.67 16.6684 15.4679L19.0531 14.6054C19.4417 14.4649 19.7772 14.2074 20.0135 13.8685L21.4638 11.7883C21.8035 11.301 22.3423 10.99 22.9341 10.9394L25.4608 10.7235C25.8725 10.6883 26.2632 10.5265 26.5792 10.2603L28.5184 8.62631C28.9727 8.24357 29.5736 8.08256 30.1584 8.18689L32.6548 8.63228C33.0616 8.70486 33.4809 8.64966 33.855 8.47428L36.1511 7.39794Z" fill="#1E1E1E"/>
<path d="M69.8644 37.5484C72.0667 37.3751 74.0101 39.0216 73.9995 41.2307C73.9718 46.9798 72.9114 52.6884 70.8578 58.0815C68.8042 63.4745 65.799 68.4426 61.9957 72.7539C60.5343 74.4105 57.988 74.3475 56.4587 72.7532L54.3622 70.5676C52.8329 68.9733 52.9048 66.4538 54.3246 64.7613C56.9716 61.606 59.0789 58.0232 60.5512 54.1568C62.0235 50.2904 62.833 46.2133 62.9551 42.0966C63.0207 39.8885 64.6428 37.9593 66.8451 37.786L69.8644 37.5484Z" fill="#D9D9D9"/>
<path d="M42 36C42 33.7909 43.7909 32 46 32H70C72.2091 32 74 33.7909 74 36V42C74 43.1046 73.1046 44 72 44H46C43.7909 44 42 42.2091 42 40V36Z" fill="#D9D9D9"/>
<path d="M33.7432 43.2165C35.9321 42.918 37.975 44.4539 37.9983 46.6629C38.0532 51.877 36.8328 57.0473 34.4167 61.7136C32.0006 66.3799 28.4827 70.3606 24.1931 73.3252C22.3757 74.5811 19.9424 73.7993 18.9228 71.8395L17.0877 68.3121C16.0681 66.3523 16.8643 63.9647 18.5828 62.5764C20.7265 60.8447 22.5012 58.6796 23.7815 56.2069C25.0619 53.7342 25.8056 51.0354 25.9825 48.2852C26.1243 46.0806 27.6146 44.0523 29.8034 43.7538L33.7432 43.2165Z" fill="#D9D9D9"/>
<path d="M26 4C26 1.79086 27.7909 0 30 0H34C36.2091 0 38 1.79086 38 4V48H26V4Z" fill="#D9D9D9"/>
<path d="M0 20C0 17.7909 1.79086 16 4 16H60C62.2091 16 64 17.7909 64 20V24C64 26.2091 62.2091 28 60 28H4C1.79086 28 0 26.2091 0 24V20Z" fill="#D9D9D9"/>
</svg>
